Coordinates
version=1
nRows=8
nColumns=60
inDegrees=yes

Units are S.I. units (second, meters, Newtons, ...)
If the header above contains a line with 'inDegrees', this indicates whether rotational values are in degrees (yes) or radians (no).

endheader
time	pelvis_tilt	pelvis_list	pelvis_rotation	pelvis_tx	pelvis_ty	pelvis_tz	hip_flexion_r	hip_adduction_r	hip_rotation_r	knee_angle_r_beta	knee_angle_r	ankle_angle_r	subtalar_angle_r	mtp_angle_r	hip_flexion_l	hip_adduction_l	hip_rotation_l	knee_angle_l_beta	knee_angle_l	ankle_angle_l	subtalar_angle_l	mtp_angle_l	L5_S1_Flex_Ext	L5_S1_Lat_Bending	L5_S1_axial_rotation	L4_L5_Flex_Ext	L4_L5_Lat_Bending	L4_L5_axial_rotation	L3_L4_Flex_Ext	L3_L4_Lat_Bending	L3_L4_axial_rotation	L2_L3_Flex_Ext	L2_L3_Lat_Bending	L2_L3_axial_rotation	L1_L2_Flex_Ext	L1_L2_Lat_Bending	L1_L2_axial_rotation	L1_T12_Flex_Ext	L1_T12_Lat_Bending	L1_T12_axial_rotation	Abs_r3	Abs_r2	Abs_r1	Abs_t1	Abs_t2	arm_flex_r	arm_add_r	arm_rot_r	elbow_flex_r	pro_sup_r	wrist_flex_r	wrist_dev_r	arm_flex_l	arm_add_l	arm_rot_l	elbow_flex_l	pro_sup_l	wrist_flex_l	wrist_dev_l
     44.92000000	      0.52284222	      7.88804908	     90.53494954	      0.40111727	      0.94189849	      0.29778814	      0.96622450	     -4.68495671	      1.37670875	      0.19464985	    -11.15261484	      6.00613317	      0.00000000	      0.00000000	      1.45189681	     -5.95099632	     -2.98568639	      0.19553700	    -11.20344477	      7.62271837	      0.00000000	      0.00000000	     -7.57743365	     -0.02876591	     -0.06230851	    -14.07205204	     -0.03825866	     -0.06620279	    -12.44896575	     -0.06994143	     -0.06620279	     -8.66024892	     -0.06994143	     -0.05451995	     -7.03640489	     -0.05865944	     -0.05062567	     -4.32974559	     -0.04455839	     -0.04673138	    -54.12485085	     -0.32540571	     -0.34654126	      0.00000000	      0.00000000	      9.39554555	    -24.97041862	     -0.67127847	     98.10118018	     76.81753662	      1.78657267	     18.36592123	     11.71687912	    -24.88639881	      1.52523962	     97.88316151	     71.76705582	     -0.04289800	     16.64606343
     44.93000000	      0.49507622	      7.61032457	     90.39865418	      0.40125779	      0.94151579	      0.29997777	      1.36445994	     -4.72173519	      1.56431413	      0.19192116	    -10.99627263	      5.83354356	      0.00000000	      0.00000000	      1.83044906	     -5.92179268	     -3.07854116	      0.19384793	    -11.10666819	      7.27456115	      0.00000000	      0.00000000	     -7.63577481	     -0.03487168	     -0.03700492	    -14.18039741	     -0.04637933	     -0.03931773	    -12.54481444	     -0.08478700	     -0.03931773	     -8.72692703	     -0.08478700	     -0.03237930	     -7.09058049	     -0.07111032	     -0.03006650	     -4.36308173	     -0.05401623	     -0.02775369	    -54.54157591	     -0.39447539	     -0.20581026	      0.00000000	      0.00000000	      9.60284940	    -24.97315220	     -0.47622489	     97.53634253	     76.82908198	      1.84768383	     18.35326489	     11.82745096	    -24.92134928	      1.82498845	     97.42050807	     71.82643731	     -0.04052315	     16.61771815
     44.94000000	      0.45407403	      7.24696704	     90.28307638	      0.40137962	      0.94097534	      0.30223178	      1.87580188	     -4.77000742	      1.74508750	      0.18971929	    -10.87011437	      5.67342217	      0.00000000	      0.00000000	      2.31961209	     -5.88160928	     -3.14374181	      0.19246263	    -11.02729664	      6.95291487	      0.00000000	      0.00000000	     -7.68475143	     -0.04173210	     -0.01405113	    -14.27135189	     -0.05550370	     -0.01492932	    -12.62527813	     -0.10146743	     -0.01492932	     -8.78290241	     -0.10146743	     -0.01229474	     -7.13606018	     -0.08510010	     -0.01141654	     -4.39106697	     -0.06464303	     -0.01053835	    -54.89141102	     -0.47208189	     -0.07814817	      0.00000000	      0.00000000	      9.85974333	    -24.96691744	     -0.26844278	     96.94079060	     76.86884021	      1.94508614	     18.26838003	     12.02894579	    -24.97803287	      2.22165243	     96.84775523	     71.95082470	     -0.04479612	     16.53366588
     44.95000000	      0.42742065	      6.89667679	     90.20554111	      0.40143503	      0.94042566	      0.30453259	      2.39398981	     -4.80978478	      1.89343837	      0.18844738	    -10.79723932	      5.49284546	      0.00000000	      0.00000000	      2.84104473	     -5.85268189	     -3.10663587	      0.19236059	    -11.02145003	      6.66889224	      0.00000000	      0.00000000	     -7.74211869	     -0.04485782	      0.00652997	    -14.37788862	     -0.05966090	      0.00693810	    -12.71952679	     -0.10906731	      0.00693810	     -8.84846745	     -0.10906731	      0.00571373	     -7.18933141	     -0.09147407	      0.00530560	     -4.42384662	     -0.06948477	      0.00489748	    -55.30117959	     -0.50744067	      0.03631775	      0.00000000	      0.00000000	     10.20013621	    -24.96174250	     -0.06644612	     96.29861420	     76.91391393	      2.02746842	     18.17274488	     12.32129152	    -25.01274327	      2.63234156	     96.25285765	     72.05083532	     -0.04388114	     16.45676984
     44.96000000	      0.39615326	      6.52163997	     90.15138063	      0.40146074	      0.93982561	      0.30691091	      2.94985944	     -4.85269915	      2.01447263	      0.18749546	    -10.74269877	      5.31055377	      0.00000000	      0.00000000	      3.41122945	     -5.81231508	     -3.01715648	      0.19273934	    -11.04315058	      6.47546901	      0.00000000	      0.00000000	     -7.80146766	     -0.04538035	      0.02523374	    -14.48810559	     -0.06035586	      0.02681085	    -12.81703122	     -0.11033777	      0.02681085	     -8.91629739	     -0.11033777	      0.02207952	     -7.24444287	     -0.09253960	      0.02050241	     -4.45775862	     -0.07029416	      0.01892531	    -55.72510334	     -0.51335155	      0.14034250	      0.00000000	      0.00000000	     10.61515446	    -24.99002030	      0.15308150	     95.64954827	     76.96550576	      2.10957401	     18.05568556	     12.68759480	    -25.05359234	      3.05217304	     95.61301600	     72.13187152	     -0.04172623	     16.37367408
     44.97000000	      0.37515035	      6.10908345	     90.12388283	      0.40148019	      0.93914913	      0.30932968	      3.55697292	     -4.88054782	      2.12003862	      0.18683760	    -10.70500604	      5.11277084	      0.00000000	      0.00000000	      4.04885459	     -5.78984730	     -2.89542128	      0.19376289	    -11.10179586	      6.35487149	      0.00000000	      0.00000000	     -7.85649109	     -0.04438518	      0.04148960	    -14.59028961	     -0.05903229	      0.04408270	    -12.90742922	     -0.10791813	      0.04408270	     -8.97918367	     -0.10791813	      0.03630340	     -7.29553763	     -0.09051026	      0.03371030	     -4.48919901	     -0.06875265	      0.03111720	    -56.11813024	     -0.50209406	      0.23075270	      0.00000000	      0.00000000	     11.11883527	    -25.05735711	      0.42610534	     94.93832109	     77.03040237	      2.21236664	     17.88460912	     13.14707558	    -25.10733256	      3.54595906	     94.87074428	     72.20450871	     -0.03996247	     16.25419122
     44.98000000	      0.36197948	      5.74011433	     90.10370807	      0.40150920	      0.93853051	      0.31179912	      4.13432184	     -4.89488185	      2.23465402	      0.18681420	    -10.70366506	      4.91062547	      0.00000000	      0.00000000	      4.66130409	     -5.76704464	     -2.73204821	      0.19561547	    -11.20794090	      6.28660782	      0.00000000	      0.00000000	     -7.92682806	     -0.04170021	      0.05653190	    -14.72091239	     -0.05546128	      0.06006514	    -13.02298582	     -0.10138989	      0.06006514	     -9.05957179	     -0.10138989	      0.04946541	     -7.36085254	     -0.08503507	      0.04593217	     -4.52938955	     -0.06459363	      0.04239892	    -56.62054016	     -0.47172111	      0.31441345	      0.00000000	      0.00000000	     11.71341338	    -25.15170678	      0.70661130	     94.23044368	     77.08366399	      2.31164598	     17.71289927	     13.69067903	    -25.15250550	      4.00755520	     94.13633877	     72.24365323	     -0.03598267	     16.12836041
     44.99000000	      0.36169799	      5.36091171	     90.09515320	      0.40155855	      0.93789195	      0.31430658	      4.72726139	     -4.89386723	      2.33941384	      0.18702970	    -10.71601231	      4.70229248	      0.00000000	      0.00000000	      5.30287127	     -5.76031018	     -2.58398492	      0.19782311	    -11.33442937	      6.25195348	      0.00000000	      0.00000000	     -7.99735109	     -0.03795313	      0.06967074	    -14.85188071	     -0.05047767	      0.07402516	    -13.13884810	     -0.09227925	      0.07402516	     -9.14017256	     -0.09227925	      0.06096189	     -7.42634022	     -0.07739403	      0.05660747	     -4.56968641	     -0.05878940	      0.05225305	    -57.12427909	     -0.42933343	      0.38748774	      0.00000000	      0.00000000	     12.40872279	    -25.26652037	      1.08677596	     93.47111827	     77.13062104	      2.42862827	     17.51756065	     14.34506616	    -25.20649952	      4.54929537	     93.33284752	     72.26195555	     -0.02633499	     15.97463618
